<svg xmlns="http://www.w3.org/2000/svg" width="16" height="16" viewBox="0 0 16 16"><defs><style>.a{fill:#ffd840;}.b{fill:#333;}</style></defs><path class="a" d="M6,0a6,6,0,1,0,6,6A6.007,6.007,0,0,0,6,0Z" transform="translate(3 3)"/><path class="b" d="M8,0a8,8,0,1,0,8,8A8.009,8.009,0,0,0,8,0ZM8,14.711A6.711,6.711,0,1,1,14.711,8,6.718,6.718,0,0,1,8,14.711Z" transform="translate(0 0)"/><path class="b" d="M20.834,18.486l-3.428,3.428L16.151,20.66a.592.592,0,1,0-.837.837l1.673,1.673a.591.591,0,0,0,.837,0l3.847-3.847a.592.592,0,1,0-.837-.837Z" transform="translate(-10.493 -12.828)"/></svg>