<svg xmlns="http://www.w3.org/2000/svg" width="43.525" height="46.069" viewBox="0 0 93.525 96.069">
  <g id="img" transform="translate(-183.17 -525.833)">
    <path id="Path_14195" data-name="Path 14195" d="M264.878,526.794c1.007,8.012,3.466,10.612,10.957,11.64-7.492,1.032-9.952,3.635-10.96,11.647-1.005-8.012-3.465-10.614-10.957-11.646,7.495-1.029,9.955-3.629,10.96-11.641" fill="#ffd73c" stroke="#333" stroke-linecap="round" stroke-linejoin="round" stroke-width="1.72"/>
    <g id="Group_2341" data-name="Group 2341">
      <path id="Path_14196" data-name="Path 14196" d="M234.041,531.54A15.407,15.407,0,0,0,227.017,530c-3.994.035-8,.134-11.849,1.352a23.68,23.68,0,0,0-12.768,9.9,14.248,14.248,0,0,0-1.683,12.49,88.348,88.348,0,0,0,2.855,8.589c1.616,4,4.717,6.7,8.322,8.929,2.745,1.7,5.434,3.491,8.071,5.351a10.33,10.33,0,0,1,3.5,4.541c.773,1.834,1.75,3.469,3.86,4.021a.4.4,0,0,1,.217.145c.667,1.016,1.306,2.051,2,3.05.527.763,1.115,1.485,1.684,2.218.145.187.382.323.472.528a4.458,4.458,0,0,0,3.793,2.556,3.059,3.059,0,0,1,1.256.674c.9.7,1.75,1.46,2.648,2.16a1.732,1.732,0,0,0,1.891.1c1.674-.765,3.354-1.52,5.013-2.319a3.162,3.162,0,0,0,1.753-3.225,3.252,3.252,0,0,1,.971-2.8,3.148,3.148,0,0,0,.7-3.608,1.1,1.1,0,0,1-.126-.522,4.291,4.291,0,0,0-1.2-3.394,2.58,2.58,0,0,1-.733-1.867.388.388,0,0,0-.017-.18,4.96,4.96,0,0,1-.255-3.532,2.669,2.669,0,0,0-.576-2,11.087,11.087,0,0,1-2.177-8.441,113.156,113.156,0,0,0,.967-11.731c.132-7.957-3.019-14.543-8.972-19.8a9.858,9.858,0,0,0-1.246-.9C234.955,532.014,234.491,531.788,234.041,531.54Z" fill="#fff"/>
      <path id="Path_14197" data-name="Path 14197" d="M235.387,532.289a9.858,9.858,0,0,1,1.246.9c5.953,5.256,9.1,11.842,8.972,19.8a113.156,113.156,0,0,1-.967,11.731,11.087,11.087,0,0,0,2.177,8.441,2.669,2.669,0,0,1,.576,2,4.96,4.96,0,0,0,.255,3.532.388.388,0,0,1,.017.18,2.58,2.58,0,0,0,.733,1.867,4.291,4.291,0,0,1,1.2,3.394,1.1,1.1,0,0,0,.126.522,3.148,3.148,0,0,1-.7,3.608,3.252,3.252,0,0,0-.971,2.8,3.162,3.162,0,0,1-1.753,3.225c-1.659.8-3.339,1.554-5.013,2.319a1.732,1.732,0,0,1-1.891-.1c-.9-.7-1.746-1.465-2.648-2.16a3.059,3.059,0,0,0-1.256-.674,4.458,4.458,0,0,1-3.793-2.556c-.09-.205-.327-.341-.472-.528-.569-.733-1.157-1.455-1.684-2.218-.691-1-1.33-2.034-2-3.05a.4.4,0,0,0-.217-.145c-2.11-.552-3.087-2.187-3.86-4.021a10.33,10.33,0,0,0-3.5-4.541c-2.637-1.86-5.326-3.655-8.071-5.351-3.6-2.227-6.706-4.933-8.322-8.929a88.348,88.348,0,0,1-2.855-8.589,14.248,14.248,0,0,1,1.683-12.49,23.68,23.68,0,0,1,12.768-9.9c3.847-1.218,7.855-1.317,11.849-1.352a15.407,15.407,0,0,1,7.024,1.539C234.491,531.788,234.955,532.014,235.387,532.289Zm9.4,44.312c1.037-.889,1.037-1.679.275-2.789a13.346,13.346,0,0,1-2.229-9.129c.393-4.2.918-8.423.91-12.635-.013-7.3-3.292-13.19-8.793-17.858a9.577,9.577,0,0,0-5.247-2.084c-5.347-.57-10.65-.369-15.694,1.713a20.724,20.724,0,0,0-10.094,8.357,12.358,12.358,0,0,0-2,7.592,29.771,29.771,0,0,0,5.276,15.044c2,2.808,4.844,4.58,7.727,6.318,1.964,1.184,3.938,2.37,5.79,3.717a14.525,14.525,0,0,1,4.6,5.849c1.172,2.559,2.71,3.327,5.475,2.785.857-.168,1.686-.484,2.543-.654.909-.18.948-.642.707-1.421a20.807,20.807,0,0,0-3.325-6.506,31.935,31.935,0,0,0-9.275-8.263c-1.831-1.08-3.107-2.5-2.968-4.8a3.727,3.727,0,0,1,3.26-3.66,1.268,1.268,0,0,0,.753-.492,4.417,4.417,0,0,1,4.9-2.1,1.136,1.136,0,0,0,.746-.265c.411-.3.744-.716,1.168-.993a3.551,3.551,0,0,1,5.32,1.36,9.991,9.991,0,0,1,1.067,5.091,31.428,31.428,0,0,0,3.629,15.722c.44.826.943,1.618,1.423,2.423.043.072.133.116.379.323C242.32,578.39,243.636,577.59,244.79,576.6Zm-5.547,3.466c-.541-.961-1.05-1.844-1.538-2.738a34.392,34.392,0,0,1-3.893-16.322,13.215,13.215,0,0,0-.631-4.078c-.635-1.824-2.24-1.956-3.52-.385.222.219.452.441.677.668a4.254,4.254,0,0,1,1.415,3.131,2.218,2.218,0,0,1-2.194,2.209,2,2,0,0,1-2.518-1.617,6.6,6.6,0,0,1-.147-1.7,16.193,16.193,0,0,1,.2-1.69,1.9,1.9,0,0,0-2.849.956,16.905,16.905,0,0,1,1.939,2.246,3.3,3.3,0,0,1,.428,2.038,2.746,2.746,0,0,1-2.7,2.345,2.893,2.893,0,0,1-2.357-2.726c-.048-.71.028-1.429.047-2.148a2.127,2.127,0,0,0-.893,3.319,9.285,9.285,0,0,0,2.454,2.08,24.436,24.436,0,0,1,12.768,16.114Zm-7.336,6.374a16.867,16.867,0,0,0,3.38-.547A35.09,35.09,0,0,0,244.033,582a3,3,0,0,0,1.707-3.124,1.59,1.59,0,0,0-.124-.342c-5.031,2.9-9.824,6.21-15.843,6.99A2.442,2.442,0,0,0,231.907,586.441Zm7.819-.2a22.269,22.269,0,0,1-8.048,2.035,1.683,1.683,0,0,0,2.2,1.021,71.238,71.238,0,0,0,12.45-4.383c1.759-.863,1.841-1.468.5-3.042C244.906,584.056,242.312,585.149,239.726,586.246Zm-5.654,4.941-.07.256a6.613,6.613,0,0,0,2.067.45,16.343,16.343,0,0,0,4.4-.905,67.369,67.369,0,0,0,6.435-3.3,5.78,5.78,0,0,0,1.186-1.223A111.259,111.259,0,0,1,234.072,591.187Zm4.637,2.447c.887,1.324,1.49,1.459,2.993.705.967-.486,1.959-.928,2.966-1.324,1.305-.514,1.491-.763,1.436-2.282ZM223.53,562.5c.065.28.435.489.667.731.2-.352.642-.785.556-1.038a6.576,6.576,0,0,0-.993-1.493l-.32.139A8.875,8.875,0,0,0,223.53,562.5Zm5.225-2.3c.061.235.575.353.883.524.1-.292.357-.646.271-.864a10.764,10.764,0,0,0-.9-1.545l-.354.1A8.2,8.2,0,0,0,228.755,560.2Z"/>
      <path id="Path_14198" data-name="Path 14198" d="M231.18,536.578c-3.2-1.66-7.023-1.638-10.9-.3-.2.068-.493.135-.547.277a2.32,2.32,0,0,0-.219,1.218c.04.177.647.373.953.318.948-.171,1.865-.51,2.811-.692a12.434,12.434,0,0,1,13.568,7.2c.257.594.347,1.5,1.381,1.09.638-.25.709-.871.28-1.883A14.1,14.1,0,0,0,231.18,536.578Z"/>
    </g>
    <path id="Path_14199" data-name="Path 14199" d="M200.172,586.9c1.47,11.7,5.06,15.493,16,16.994-10.94,1.507-14.532,5.307-16,17.006-1.469-11.7-5.06-15.5-16-17.005,10.943-1.5,14.534-5.3,16-16.995" fill="#ffd73c" stroke="#333" stroke-linecap="round" stroke-linejoin="round" stroke-width="2"/>
  </g>
</svg>
